<svg width="54" height="29" viewBox="0 0 54 29" fill="none" xmlns="http://www.w3.org/2000/svg">
<path d="M51 12V12C52.6569 12 54 13.3431 54 15V16C54 17.6569 52.6569 19 51 19V19V12Z" fill="white"/>
<path d="M0 8C0 5.23857 2.23858 3 5 3H45.4587C48.2201 3 50.4587 5.23858 50.4587 8V23.2294C50.4587 25.9908 48.2201 28.2294 45.4587 28.2294H5C2.23857 28.2294 0 25.9908 0 23.2294V8Z" fill="white"/>
<path d="M8.01758 25H11.2295V6.68066H8.00488L3.21875 10.0449V13.0537L7.92871 9.80371H8.01758V25Z" fill="black"/>
<path d="M22.5283 25.3301C24.0179 25.3301 25.3001 24.945 26.375 24.1748C27.4499 23.3962 28.2751 22.3001 28.8506 20.8867C29.4261 19.4733 29.7139 17.7933 29.7139 15.8467V15.8213C29.7139 13.8747 29.4261 12.1947 28.8506 10.7812C28.2751 9.36784 27.4499 8.27604 26.375 7.50586C25.3001 6.73568 24.0179 6.35059 22.5283 6.35059C21.0387 6.35059 19.7565 6.73568 18.6816 7.50586C17.6152 8.27604 16.7943 9.36784 16.2188 10.7812C15.6432 12.1947 15.3555 13.8747 15.3555 15.8213V15.8467C15.3555 17.7933 15.6432 19.4733 16.2188 20.8867C16.7943 22.3001 17.6152 23.3962 18.6816 24.1748C19.7565 24.945 21.0387 25.3301 22.5283 25.3301ZM22.5283 22.6514C21.7074 22.6514 21.0091 22.3805 20.4336 21.8389C19.8581 21.2972 19.418 20.5186 19.1133 19.5029C18.8086 18.4788 18.6562 17.2601 18.6562 15.8467V15.8213C18.6562 14.4079 18.8086 13.1934 19.1133 12.1777C19.418 11.1621 19.8581 10.3835 20.4336 9.8418C21.0091 9.30013 21.7074 9.0293 22.5283 9.0293C23.3493 9.0293 24.0475 9.30013 24.623 9.8418C25.207 10.3835 25.6514 11.1621 25.9561 12.1777C26.2607 13.1934 26.4131 14.4079 26.4131 15.8213V15.8467C26.4131 17.2601 26.2607 18.4788 25.9561 19.5029C25.6514 20.5186 25.207 21.2972 24.623 21.8389C24.0475 22.3805 23.3493 22.6514 22.5283 22.6514Z" fill="black"/>
<path d="M39.1846 25.3301C40.6742 25.3301 41.9564 24.945 43.0312 24.1748C44.1061 23.3962 44.9313 22.3001 45.5068 20.8867C46.0824 19.4733 46.3701 17.7933 46.3701 15.8467V15.8213C46.3701 13.8747 46.0824 12.1947 45.5068 10.7812C44.9313 9.36784 44.1061 8.27604 43.0312 7.50586C41.9564 6.73568 40.6742 6.35059 39.1846 6.35059C37.695 6.35059 36.4128 6.73568 35.3379 7.50586C34.2715 8.27604 33.4505 9.36784 32.875 10.7812C32.2995 12.1947 32.0117 13.8747 32.0117 15.8213V15.8467C32.0117 17.7933 32.2995 19.4733 32.875 20.8867C33.4505 22.3001 34.2715 23.3962 35.3379 24.1748C36.4128 24.945 37.695 25.3301 39.1846 25.3301ZM39.1846 22.6514C38.3636 22.6514 37.6654 22.3805 37.0898 21.8389C36.5143 21.2972 36.0742 20.5186 35.7695 19.5029C35.4648 18.4788 35.3125 17.2601 35.3125 15.8467V15.8213C35.3125 14.4079 35.4648 13.1934 35.7695 12.1777C36.0742 11.1621 36.5143 10.3835 37.0898 9.8418C37.6654 9.30013 38.3636 9.0293 39.1846 9.0293C40.0055 9.0293 40.7038 9.30013 41.2793 9.8418C41.8633 10.3835 42.3076 11.1621 42.6123 12.1777C42.917 13.1934 43.0693 14.4079 43.0693 15.8213V15.8467C43.0693 17.2601 42.917 18.4788 42.6123 19.5029C42.3076 20.5186 41.8633 21.2972 41.2793 21.8389C40.7038 22.3805 40.0055 22.6514 39.1846 22.6514Z" fill="black"/>
</svg>
