<svg width="64" height="61" viewBox="0 0 64 61" fill="none" xmlns="http://www.w3.org/2000/svg">
<path d="M29.1503 2.66085C30.0551 -0.0889543 33.9449 -0.088947 34.8497 2.66086L40.302 19.2315C40.7069 20.4621 41.8561 21.2938 43.1517 21.2938L60.7146 21.2938C63.6299 21.2938 64.8321 25.0319 62.4634 26.7314L48.3199 36.8788C47.2552 37.6426 46.8095 39.0092 47.2191 40.2539L52.6367 56.7192C53.5439 59.4765 50.3966 61.7865 48.0381 60.0944L33.7488 49.8424C32.7035 49.0924 31.2965 49.0924 30.2512 49.8424L15.9619 60.0944C13.6034 61.7865 10.4561 59.4765 11.3633 56.7192L16.7809 40.2539C17.1905 39.0092 16.7448 37.6426 15.6801 36.8788L1.5366 26.7314C-0.832115 25.0319 0.370132 21.2938 3.28543 21.2938L20.8483 21.2938C22.1439 21.2938 23.2931 20.4621 23.698 19.2315L29.1503 2.66085Z" fill="#037BFF"/>
</svg>
